<svg id="XMLID_806_" xmlns="http://www.w3.org/2000/svg" width="88" height="57.082" viewBox="0 0 88 57.082">
  <rect id="Rectangle_23" data-name="Rectangle 23" width="88" height="57" transform="translate(0 0.082)" fill="none"/>
  <g id="XMLID_386_" transform="translate(12 0)">
    <path id="XMLID_389_" d="M58.959,41.343A23.287,23.287,0,0,0,40.85,20.923V17.991a3.923,3.923,0,0,0-.947-7.729H31.6a3.923,3.923,0,0,0-.947,7.729v2.94a23.167,23.167,0,0,0-11.362,6.25A23.418,23.418,0,0,0,17.328,29.4c-.029,0-.058,0-.087,0H9.019a1.154,1.154,0,0,0,0,2.308h6.739a23.129,23.129,0,0,0-2.047,4.435H1.154a1.154,1.154,0,1,0,0,2.308H13.059a23.459,23.459,0,0,0-.573,4.435h-5.1a1.154,1.154,0,1,0,0,2.308h5.139a23.425,23.425,0,0,0,.72,4.435H5.769a1.154,1.154,0,0,0,0,2.308H13.98a23.3,23.3,0,0,0,19.483,14.92q1.143.113,2.287.112a23.362,23.362,0,0,0,12.719-3.759,1.154,1.154,0,1,0-1.259-1.934,21,21,0,1,1,6.185-6.193,1.154,1.154,0,1,0,1.935,1.257A23.381,23.381,0,0,0,58.959,41.343ZM29.981,14.185A1.617,1.617,0,0,1,31.6,12.57H39.9a1.615,1.615,0,0,1,0,3.231H31.6A1.617,1.617,0,0,1,29.981,14.185Zm2.976,6.35V18.108h5.586V20.53A23.509,23.509,0,0,0,32.957,20.535Z" transform="translate(0 -10.262)" fill="#03309b"/>
    <path id="XMLID_391_" d="M436.924,425.5a1.154,1.154,0,1,0,.816.338A1.16,1.16,0,0,0,436.924,425.5Z" transform="translate(-385.492 -377.591)" fill="#03309b"/>
    <path id="XMLID_394_" d="M172.77,144.609a17.9,17.9,0,1,0,17.9,17.9A17.919,17.919,0,0,0,172.77,144.609Zm0,33.489a15.591,15.591,0,1,1,15.591-15.591A15.609,15.609,0,0,1,172.77,178.1Z" transform="translate(-137.003 -129.108)" fill="#03309b"/>
    <path id="XMLID_397_" d="M270.445,219.749l-5.715,5.715a3.576,3.576,0,0,0-3.167,0l-2.558-2.558a1.154,1.154,0,0,0-1.632,1.632l2.558,2.558a3.585,3.585,0,1,0,6.431,0l5.547-5.547h0l.168-.168a1.154,1.154,0,0,0-1.632-1.632Zm-7.3,10.208a1.278,1.278,0,1,1,1.278-1.278A1.279,1.279,0,0,1,263.147,229.957Z" transform="translate(-227.38 -195.28)" fill="#03309b"/>
    <path id="XMLID_398_" d="M399.878,289.86h-1.069a1.154,1.154,0,0,0,0,2.308h1.069a1.154,1.154,0,1,0,0-2.308Z" transform="translate(-351.775 -257.601)" fill="#03309b"/>
    <path id="XMLID_399_" d="M195.3,289.616h-1.069a1.154,1.154,0,0,0,0,2.308H195.3a1.154,1.154,0,0,0,0-2.308Z" transform="translate(-170.805 -257.385)" fill="#03309b"/>
    <path id="XMLID_400_" d="M301.277,186.2a1.154,1.154,0,0,0,1.154-1.154v-1.069a1.154,1.154,0,1,0-2.308,0v1.069A1.154,1.154,0,0,0,301.277,186.2Z" transform="translate(-265.495 -162.91)" fill="#03309b"/>
    <path id="XMLID_424_" d="M301.033,387.393a1.154,1.154,0,0,0-1.154,1.154v1.069a1.154,1.154,0,1,0,2.308,0v-1.069A1.154,1.154,0,0,0,301.033,387.393Z" transform="translate(-265.28 -343.88)" fill="#03309b"/>
    <path id="XMLID_425_" d="M1.154,351.44a1.154,1.154,0,1,0,.816,1.969,1.154,1.154,0,0,0-.816-1.969Z" transform="translate(0 -312.076)" fill="#03309b"/>
  </g>
</svg>
