<svg xmlns="http://www.w3.org/2000/svg" width="136" height="92.893" viewBox="0 0 136 92.893">
  <g id="XMLID_806_" transform="translate(0 2.322)">
    <rect id="Rectangle_23" data-name="Rectangle 23" width="136" height="87.873" transform="translate(0 0.127)" fill="none"/>
    <g id="delivery-box" transform="translate(-2.547 -2.322)">
      <g id="Group_15283" data-name="Group 15283" transform="translate(29.372)">
        <path id="Path_4666" data-name="Path 4666" d="M111.4,248.636l-6.5-12.771a1.815,1.815,0,0,0-1.618-.992h-65.6a1.815,1.815,0,0,0-1.618.992l-6.5,12.771a1.815,1.815,0,0,0,1.618,2.639h2.266v32.042a1.815,1.815,0,0,0,1.815,1.815H105.7a1.815,1.815,0,0,0,1.815-1.815V251.275h2.271a1.816,1.816,0,0,0,1.618-2.639ZM102.171,238.5l4.654,9.14H78.1l-4.654-9.14Zm-63.369,0H67.525l-4.654,9.14H34.148Zm65.083,43H72.3v-10.06a1.815,1.815,0,1,0-3.63,0V281.5H37.083V251.275h26.9a1.815,1.815,0,0,0,1.618-.992l3.069-6.028v10.885a1.815,1.815,0,0,0,3.63,0V244.256l3.069,6.028a1.815,1.815,0,0,0,1.618.992h26.9Z" transform="translate(-29.372 -192.239)" fill="#03309b"/>
        <path id="Path_4667" data-name="Path 4667" d="M115.569,436.98H105.233a1.815,1.815,0,1,0,0,3.63h10.336a1.815,1.815,0,1,0,0-3.63Z" transform="translate(-89.977 -357.659)" fill="#03309b"/>
        <path id="Path_4668" data-name="Path 4668" d="M171.858,37.3a18.648,18.648,0,1,0-18.633-18.651A18.661,18.661,0,0,0,171.858,37.3Zm0-33.666a15.018,15.018,0,1,1-15,15.015A15.023,15.023,0,0,1,171.858,3.63Z" transform="translate(-130.743)" fill="#03309b"/>
        <path id="Path_4669" data-name="Path 4669" d="M208.147,72.758l4.832,4.1a1.815,1.815,0,0,0,1.174.431c.052,0,.1,0,.155-.007a1.815,1.815,0,0,0,1.237-.644l9.092-10.867a1.815,1.815,0,1,0-2.784-2.33l-7.92,9.466-3.438-2.914a1.815,1.815,0,0,0-2.348,2.769Z" transform="translate(-175.17 -51.389)" fill="#03309b"/>
        <path id="Path_4670" data-name="Path 4670" d="M51.235,96.35h7.854a1.815,1.815,0,1,0,0-3.63H51.235a1.815,1.815,0,1,0,0,3.63Z" transform="translate(-45.781 -75.889)" fill="#03309b"/>
        <path id="Path_4671" data-name="Path 4671" d="M50.387,27.711l7.854,4.142a1.815,1.815,0,1,0,1.694-3.211L52.081,24.5a1.815,1.815,0,0,0-1.694,3.211Z" transform="translate(-45.779 -19.881)" fill="#03309b"/>
        <path id="Path_4672" data-name="Path 4672" d="M49.627,145.153a1.814,1.814,0,0,0,2.452.76l7.854-4.137a1.815,1.815,0,0,0-1.692-3.212L50.388,142.7a1.815,1.815,0,0,0-.76,2.452Z" transform="translate(-45.779 -113.241)" fill="#03309b"/>
        <path id="Path_4673" data-name="Path 4673" d="M400.846,96.35H408.7a1.815,1.815,0,1,0,0-3.63h-7.854a1.815,1.815,0,1,0,0,3.63Z" transform="translate(-331.93 -75.889)" fill="#03309b"/>
        <path id="Path_4674" data-name="Path 4674" d="M400.846,32.063a1.807,1.807,0,0,0,.845-.21l7.854-4.142a1.815,1.815,0,1,0-1.694-3.211L400,28.642a1.815,1.815,0,0,0,.848,3.421Z" transform="translate(-331.928 -19.88)" fill="#03309b"/>
        <path id="Path_4675" data-name="Path 4675" d="M400,141.775l7.854,4.137a1.815,1.815,0,0,0,1.692-3.212l-7.854-4.137A1.815,1.815,0,0,0,400,141.775Z" transform="translate(-331.928 -113.239)" fill="#03309b"/>
        <path id="Path_4676" data-name="Path 4676" d="M247.688,381.423a1.815,1.815,0,0,0-1.815,1.815v.01a1.815,1.815,0,1,0,1.815-1.826Z" transform="translate(-206.573 -312.186)" fill="#03309b"/>
      </g>
    </g>
  </g>
</svg>
