<svg id="Component_3_1" data-name="Component 3 – 1" xmlns="http://www.w3.org/2000/svg" width="88" height="54.002" viewBox="0 0 88 54.002">
  <g id="quality_1_" data-name="quality (1)" transform="translate(16.998 0.469)">
    <g id="Group_15269" data-name="Group 15269" transform="translate(0.001 9.619)">
      <g id="Group_15268" data-name="Group 15268">
        <path id="Path_4657" data-name="Path 4657" d="M50.4,112.388a4.71,4.71,0,0,0-4.7-4.7H38.7a38.144,38.144,0,0,0,1.716-7.227A7.362,7.362,0,0,0,33.145,92a1.568,1.568,0,0,0-1.568,1.568c0,3.789-2.177,9.508-4.718,10.782a68.654,68.654,0,0,1-9.608,3.333H1.569A1.568,1.568,0,0,0,0,109.252v21.957a1.568,1.568,0,0,0,1.568,1.568h4.7v1.568a1.568,1.568,0,0,0,1.568,1.568h6.482a4.711,4.711,0,0,0,4.3-2.8l11,2.751a1.57,1.57,0,0,0,.38.047h9.41a4.705,4.705,0,0,0,4.374-6.438,4.706,4.706,0,0,0,3.137-6.273,4.7,4.7,0,0,0,2.267-7.677A4.686,4.686,0,0,0,50.4,112.388ZM6.274,129.64H3.137V110.82H6.274Zm9.619,1.568a1.57,1.57,0,0,1-1.568,1.568H9.411V110.82h6.482Zm20.388-14.115h9.41a1.568,1.568,0,1,1,0,3.137h-9.41a1.568,1.568,0,0,0,0,3.137h6.273a1.568,1.568,0,1,1,0,3.137H36.282a1.568,1.568,0,0,0,0,3.137h3.137a1.568,1.568,0,1,1,0,3.137H30.2L19.03,129.984V110.441a64.28,64.28,0,0,0,9.234-3.286c3.6-1.806,5.808-7.517,6.329-11.762a4.229,4.229,0,0,1,2.725,4.6c-.743,4.982-1.675,7.028-2.439,8.556a1.568,1.568,0,0,0,1.4,2.27h9.41a1.568,1.568,0,0,1,0,3.137h-9.41a1.568,1.568,0,1,0,0,3.137Z" transform="translate(-0.001 -92)" fill="#03309b"/>
      </g>
    </g>
    <g id="Group_15271" data-name="Group 15271" transform="translate(33.145)">
      <g id="Group_15270" data-name="Group 15270">
        <path id="Path_4658" data-name="Path 4658" d="M318.568,0A1.568,1.568,0,0,0,317,1.568V4.914a1.568,1.568,0,1,0,3.137,0V1.568A1.568,1.568,0,0,0,318.568,0Z" transform="translate(-317)" fill="#03309b"/>
      </g>
    </g>
    <g id="Group_15273" data-name="Group 15273" transform="translate(20.946 5.262)">
      <g id="Group_15272" data-name="Group 15272">
        <path id="Path_4659" data-name="Path 4659" d="M205.223,53,203,50.787A1.568,1.568,0,0,0,200.787,53L203,55.223A1.568,1.568,0,1,0,205.223,53Z" transform="translate(-200.328 -50.327)" fill="#03309b"/>
      </g>
    </g>
    <g id="Group_15275" data-name="Group 15275" transform="translate(15.893 17.461)">
      <g id="Group_15274" data-name="Group 15274">
        <path id="Path_4660" data-name="Path 4660" d="M156.7,167h-3.137a1.568,1.568,0,0,0,0,3.137H156.7a1.568,1.568,0,1,0,0-3.137Z" transform="translate(-151.999 -167)" fill="#03309b"/>
      </g>
    </g>
    <g id="Group_15277" data-name="Group 15277" transform="translate(47.26 17.461)">
      <g id="Group_15276" data-name="Group 15276">
        <path id="Path_4661" data-name="Path 4661" d="M456.7,167h-3.137a1.568,1.568,0,1,0,0,3.137H456.7a1.568,1.568,0,0,0,0-3.137Z" transform="translate(-452 -167)" fill="#03309b"/>
      </g>
    </g>
    <g id="Group_15279" data-name="Group 15279" transform="translate(43.126 5.262)">
      <g id="Group_15278" data-name="Group 15278">
        <path id="Path_4662" data-name="Path 4662" d="M417.355,50.787a1.568,1.568,0,0,0-2.218,0L412.919,53a1.568,1.568,0,1,0,2.218,2.218L417.355,53A1.568,1.568,0,0,0,417.355,50.787Z" transform="translate(-412.459 -50.327)" fill="#03309b"/>
      </g>
    </g>
  </g>
  <rect id="Rectangle_2590" data-name="Rectangle 2590" width="88" height="54" fill="none"/>
</svg>
