<svg xmlns="http://www.w3.org/2000/svg" xmlns:xlink="http://www.w3.org/1999/xlink" width="88" height="57" viewBox="0 0 88 57">
  <defs>
    <clipPath id="clip-path">
      <rect id="Rectangle_2589" data-name="Rectangle 2589" width="88" height="57" transform="translate(-14.239 0.04)" fill="#fff"/>
    </clipPath>
  </defs>
  <g id="Mask_Group_3" data-name="Mask Group 3" transform="translate(14.239 -0.04)" clip-path="url(#clip-path)">
    <g id="clipboard_2_" data-name="clipboard (2)" transform="translate(9.402 1.708)">
      <g id="Group_15267" data-name="Group 15267" transform="translate(0 0)">
        <g id="Group_15266" data-name="Group 15266" transform="translate(0 0)">
          <path id="Path_4646" data-name="Path 4646" d="M82.625,6.8h-4.7V4.7c0-.68-.741-.989-1.421-.989H72.863A5.527,5.527,0,0,0,67.364,0a5.622,5.622,0,0,0-5.5,3.707H58.282c-.68,0-1.359.309-1.359.989V6.8h-4.7a5.252,5.252,0,0,0-5.19,5v35.4a4.971,4.971,0,0,0,5.19,4.7h30.4a4.971,4.971,0,0,0,5.19-4.7v-35.4A5.252,5.252,0,0,0,82.625,6.8ZM59.394,6.183h3.4a1.359,1.359,0,0,0,1.174-1.112,3.583,3.583,0,0,1,3.4-2.78A3.522,3.522,0,0,1,70.7,5.071a1.359,1.359,0,0,0,1.236,1.112h3.522v4.943H59.394Zm25.95,41.025a2.506,2.506,0,0,1-2.719,2.224h-30.4a2.506,2.506,0,0,1-2.719-2.224v-35.4a2.78,2.78,0,0,1,2.719-2.533h4.7v3.151A1.3,1.3,0,0,0,58.282,13.6H76.508a1.359,1.359,0,0,0,1.421-1.174V9.272h4.7A2.78,2.78,0,0,1,85.343,11.8v35.4Z" transform="translate(-47.037 0)" fill="#03309b"/>
          <path id="Path_4647" data-name="Path 4647" d="M108.822,230.7a1.236,1.236,0,0,0-1.73-.062l-3.954,3.769-1.668-1.73a1.236,1.236,0,0,0-1.73-.062,1.3,1.3,0,0,0,0,1.792L102.273,237a1.112,1.112,0,0,0,.865.371A1.235,1.235,0,0,0,104,237l4.819-4.572a1.174,1.174,0,0,0,.071-1.659C108.871,230.743,108.847,230.719,108.822,230.7Z" transform="translate(-93.191 -203.075)" fill="#03309b"/>
          <path id="Path_4648" data-name="Path 4648" d="M213.994,256.034h-14.21a1.236,1.236,0,1,0,0,2.471h14.21a1.236,1.236,0,1,0,0-2.471Z" transform="translate(-180.63 -225.755)" fill="#03309b"/>
          <path id="Path_4649" data-name="Path 4649" d="M108.822,147.1a1.236,1.236,0,0,0-1.73-.062l-3.954,3.769-1.668-1.73a1.236,1.236,0,0,0-1.73-.062,1.3,1.3,0,0,0,0,1.792l2.533,2.595a1.112,1.112,0,0,0,.865.371,1.235,1.235,0,0,0,.865-.371l4.819-4.572a1.174,1.174,0,0,0,.071-1.659C108.871,147.151,108.847,147.127,108.822,147.1Z" transform="translate(-93.191 -129.368)" fill="#03309b"/>
          <path id="Path_4650" data-name="Path 4650" d="M213.994,172.442h-14.21a1.236,1.236,0,1,0,0,2.471h14.21a1.236,1.236,0,0,0,0-2.471Z" transform="translate(-180.63 -152.049)" fill="#03309b"/>
          <path id="Path_4651" data-name="Path 4651" d="M108.822,314.288a1.236,1.236,0,0,0-1.73-.062L103.138,318l-1.668-1.73a1.236,1.236,0,0,0-1.73-.062,1.3,1.3,0,0,0,0,1.792l2.533,2.595a1.112,1.112,0,0,0,.865.371,1.235,1.235,0,0,0,.865-.371l4.819-4.572a1.174,1.174,0,0,0,.071-1.659C108.871,314.335,108.847,314.311,108.822,314.288Z" transform="translate(-93.191 -276.781)" fill="#03309b"/>
          <path id="Path_4652" data-name="Path 4652" d="M213.994,339.626h-14.21a1.236,1.236,0,1,0,0,2.471h14.21a1.236,1.236,0,0,0,0-2.471Z" transform="translate(-180.63 -299.462)" fill="#03309b"/>
        </g>
      </g>
    </g>
  </g>
</svg>
