<svg xmlns="http://www.w3.org/2000/svg" xmlns:xlink="http://www.w3.org/1999/xlink" width="88" height="57" viewBox="0 0 88 57">
  <defs>
    <clipPath id="clip-path">
      <rect id="Rectangle_22" data-name="Rectangle 22" width="88" height="57" transform="translate(-14.239 0.04)" fill="#fff"/>
    </clipPath>
  </defs>
  <g id="Group_2" data-name="Group 2" transform="translate(14.239 -0.04)" clip-path="url(#clip-path)">
    <g id="medal" transform="translate(9.051 0.04)">
      <path id="Path_4653" data-name="Path 4653" d="M40.5,56.7A16.7,16.7,0,1,0,57.2,40,16.718,16.718,0,0,0,40.5,56.7ZM57.2,42.227A14.473,14.473,0,1,1,42.727,56.7,14.489,14.489,0,0,1,57.2,42.227Zm0,0" transform="translate(-35.547 -35.547)" fill="#03309b"/>
      <path id="Path_4654" data-name="Path 4654" d="M95.24,101.689l4.315,4.252-.993,5.976a1.113,1.113,0,0,0,1.611,1.171l5.376-2.792,5.376,2.792a1.113,1.113,0,0,0,1.611-1.171l-.993-5.976,4.315-4.252a1.113,1.113,0,0,0-.616-1.894l-5.989-.9-2.71-5.419a1.113,1.113,0,0,0-1.991,0l-2.71,5.419-5.989.9a1.113,1.113,0,0,0-.616,1.894Zm7.508-.68a1.114,1.114,0,0,0,.83-.6l1.972-3.945,1.972,3.945a1.114,1.114,0,0,0,.83.6l4.359.656-3.141,3.094a1.115,1.115,0,0,0-.317.976l.723,4.349-3.913-2.032a1.113,1.113,0,0,0-1.026,0l-3.913,2.032.723-4.349a1.113,1.113,0,0,0-.317-.976l-3.141-3.094Zm0,0" transform="translate(-83.898 -82.522)" fill="#03309b"/>
      <path id="Path_4655" data-name="Path 4655" d="M182.727,1.113A1.113,1.113,0,1,1,181.613,0,1.113,1.113,0,0,1,182.727,1.113Zm0,0" transform="translate(-159.961)" fill="#03309b"/>
      <path id="Path_4656" data-name="Path 4656" d="M16.406,5.616A21.154,21.154,0,0,0,7.463,41.8L.756,53.617a1.113,1.113,0,0,0,1.195,1.639l7.617-1.582,2.677,7.544a1.113,1.113,0,0,0,2.017.178L21.652,48.4,29.043,61.4a1.113,1.113,0,0,0,.967.563c.033,0,.066,0,.1,0a1.115,1.115,0,0,0,.952-.737l2.677-7.544,7.617,1.582a1.113,1.113,0,0,0,1.195-1.639L35.841,41.8A21.154,21.154,0,0,0,26.9,5.616a1.113,1.113,0,0,0-.551,2.157,18.926,18.926,0,1,1-9.392,0,1.113,1.113,0,1,0-.551-2.157ZM13.529,58.18l-2.188-6.165a1.113,1.113,0,0,0-1.275-.718L3.907,52.576l5.308-9.355a21.2,21.2,0,0,0,10.57,3.96ZM33.238,51.3a1.114,1.114,0,0,0-1.275.718L29.775,58.18l-6.257-11a21.2,21.2,0,0,0,10.571-3.96L39.4,52.576Zm0,0" transform="translate(0 -4.96)" fill="#03309b"/>
    </g>
  </g>
</svg>
