<svg id="Group_3" data-name="Group 3" xmlns="http://www.w3.org/2000/svg" width="121.972" height="41.001" viewBox="0 0 121.972 41.001">
  <g id="Group_2" data-name="Group 2">
    <path id="Path_1" data-name="Path 1" d="M88.164,89.306a.964.964,0,0,1-.792-.362,1.016,1.016,0,0,1-.205-.862L93.422,58.8a1.445,1.445,0,0,1,.521-.86,1.417,1.417,0,0,1,.93-.364H107.7a20.215,20.215,0,0,1,5.371.681,11.684,11.684,0,0,1,4.215,2.063,7.482,7.482,0,0,1,2.47,3.466,9.118,9.118,0,0,1,.136,4.894q-1.179,5.621-4.85,8.181t-10.152,2.561h-4.079l-1.858,8.656a1.446,1.446,0,0,1-.522.862,1.414,1.414,0,0,1-.928.362ZM102.35,71.042h3.174a2.638,2.638,0,0,0,1.517-.566,3.089,3.089,0,0,0,1.111-1.88,3.5,3.5,0,0,0,.069-1.18,1.779,1.779,0,0,0-.432-1,1.5,1.5,0,0,0-1.179-.409h-3.172Z" transform="translate(-87.146 -57.128)" fill="#03309b"/>
    <path id="Path_2" data-name="Path 2" d="M103.75,89.306a.765.765,0,0,1-.726-.43.855.855,0,0,1,.045-.884L119.3,59.078a3.609,3.609,0,0,1,.862-1,2.235,2.235,0,0,1,1.5-.5h10.061a1.536,1.536,0,0,1,1.292.5,1.919,1.919,0,0,1,.43,1l3.988,28.914a.992.992,0,0,1-.317.952,1.335,1.335,0,0,1-.907.362h-8.158a1.33,1.33,0,0,1-1.541-1.132l-.453-2.992H116.3l-1.722,2.992a3.59,3.59,0,0,1-.658.747,1.962,1.962,0,0,1-1.337.385Zm16.724-12.961H125.6l-.771-8.43Z" transform="translate(-79.115 -57.128)" fill="#03309b"/>
    <g id="Group_1" data-name="Group 1" transform="translate(56.093)">
      <path id="Path_3" data-name="Path 3" d="M164.968,57.877a.819.819,0,0,0-.656-.3H154.3a2.234,2.234,0,0,0-1.224.318,2.863,2.863,0,0,0-.771.679l-7.613,9.744h-.726L146,58.8a1.018,1.018,0,0,0-.2-.86.974.974,0,0,0-.794-.364h-17.63a1.416,1.416,0,0,0-.928.364,1.44,1.44,0,0,0-.522.86l-1.586,7.3a1.013,1.013,0,0,0,.2.86.966.966,0,0,0,.794.364h7.515l-4.434,20.756a1.027,1.027,0,0,0,.2.884,1,1,0,0,0,.794.34H138.3a1.421,1.421,0,0,0,.93-.362,1.444,1.444,0,0,0,.521-.862l2.086-9.788h1.541l3.444,9.969a4.335,4.335,0,0,0,.432.613,1.513,1.513,0,0,0,1.246.43h9.88a1.193,1.193,0,0,0,.77-.294,1.035,1.035,0,0,0,.407-.7.706.706,0,0,0,0-.5L153.8,72.764l11.058-13.686a1.124,1.124,0,0,0,.272-.5A.771.771,0,0,0,164.968,57.877Z" transform="translate(-124.317 -57.128)" fill="#03309b"/>
      <path id="Path_4" data-name="Path 4" d="M175.5,60.5a13.236,13.236,0,0,0-4.579-2.4,19.048,19.048,0,0,0-5.642-.816q-7.341,0-11.353,3.241a16.069,16.069,0,0,0-5.17,8h3.614c.691,0,1.387.343,1.25,1.249L152.139,76.7a1.35,1.35,0,0,1-1.249,1.249H146.7A9.926,9.926,0,0,0,147.124,83a8.939,8.939,0,0,0,2.81,3.828,13.061,13.061,0,0,0,4.577,2.312,20.159,20.159,0,0,0,5.644.771q7.341,0,11.33-3.083a16.1,16.1,0,0,0,5.528-9.154q.455-1.858.907-3.943t.771-4.034a10.06,10.06,0,0,0-.385-5.3A9.27,9.27,0,0,0,175.5,60.5Zm-8.59,9.29q-.317,1.858-.724,3.762t-.907,3.853a4.915,4.915,0,0,1-1.541,2.786,3.966,3.966,0,0,1-2.584.884,2.635,2.635,0,0,1-2.2-.884,3.5,3.5,0,0,1-.386-2.786q.362-1.949.771-3.853t.862-3.762A5.135,5.135,0,0,1,161.786,67a3.9,3.9,0,0,1,2.538-.884,2.719,2.719,0,0,1,2.2.884A3.278,3.278,0,0,1,166.907,69.79Z" transform="translate(-112.992 -57.281)" fill="#03309b"/>
    </g>
  </g>
  <path id="Path_5" data-name="Path 5" d="M92.64,82.632H91.386v3.08h-.872v-3.08H89.255v-.764H92.64Z" transform="translate(-86.073 -44.765)" fill="#03309b"/>
  <path id="Path_6" data-name="Path 6" d="M110.516,84.48h-1.56l-.343,1.231h-.883l1.106-3.844h1.8l1.112,3.844h-.883Zm-.213-.764-.459-1.63h-.217l-.459,1.63Z" transform="translate(-76.668 -44.765)" fill="#03309b"/>
  <path id="Path_7" data-name="Path 7" d="M117.142,81.868h1.717l1.162,3.625h.217l-.163-.545v-3.08h.872v3.844h-1.717l-1.16-3.625h-.219l.163.545v3.08h-.872Z" transform="translate(-71.876 -44.765)" fill="#03309b"/>
  <path id="Path_8" data-name="Path 8" d="M128.471,85.784c-1.384,0-1.9-.567-1.9-1.538h.872c0,.59.294.774,1.056.774.563,0,.747-.13.747-.338,0-.278-.468-.4-1.029-.593-.813-.273-1.473-.49-1.473-1.243,0-.653.518-1.014,1.511-1.014,1.177,0,1.707.6,1.707,1.363h-.872c0-.468-.361-.6-.835-.6-.392,0-.638.088-.638.284,0,.174.094.24.709.447.708.24,1.793.545,1.793,1.346C130.118,85.332,129.655,85.784,128.471,85.784Z" transform="translate(-67.077 -44.783)" fill="#03309b"/>
  <path id="Path_9" data-name="Path 9" d="M139.155,83.216c0,1.166-.741,1.351-1.711,1.351h-.507v1.145h-.872V81.868h1.379C138.414,81.868,139.155,82.054,139.155,83.216Zm-.872,0c0-.53-.267-.584-.785-.584h-.561V83.8h.561C138.015,83.8,138.282,83.75,138.282,83.216Z" transform="translate(-62.244 -44.765)" fill="#03309b"/>
  <path id="Path_10" data-name="Path 10" d="M147.094,81.832a1.976,1.976,0,1,1-1.963,1.974A1.87,1.87,0,0,1,147.094,81.832Zm0,3.189c.724,0,1.085-.474,1.085-1.215s-.361-1.21-1.085-1.21S146,83.069,146,83.806,146.368,85.021,147.094,85.021Z" transform="translate(-57.628 -44.783)" fill="#03309b"/>
  <path id="Path_11" data-name="Path 11" d="M167.378,82.632h-1.254v3.08h-.872v-3.08h-1.259v-.764h3.385Z" transform="translate(-48.026 -44.765)" fill="#03309b"/>
  <path id="Path_12" data-name="Path 12" d="M154.677,85.712V81.868h1.879a1.562,1.562,0,0,1,.534.089,1.258,1.258,0,0,1,.421.243,1.117,1.117,0,0,1,.273.377,1.152,1.152,0,0,1,.1.483,1.088,1.088,0,0,1-.205.647,1.218,1.218,0,0,1-.546.423l.85,1.582h-.889l-.752-1.471h-.8v1.471Zm1.806-3.157h-.94v1.032h.94a.624.624,0,0,0,.432-.143.511.511,0,0,0,0-.745A.631.631,0,0,0,156.483,82.555Z" transform="translate(-52.768 -44.765)" fill="#03309b"/>
  <path id="Path_13" data-name="Path 13" d="M98.623,85.712V81.868H100.5a1.556,1.556,0,0,1,.534.089,1.258,1.258,0,0,1,.421.243,1.142,1.142,0,0,1,.275.377,1.175,1.175,0,0,1,.1.483,1.077,1.077,0,0,1-.205.647,1.218,1.218,0,0,1-.546.423l.851,1.582h-.89l-.752-1.471h-.8v1.471Zm1.806-3.157h-.94v1.032h.94a.624.624,0,0,0,.432-.143.511.511,0,0,0,0-.745A.631.631,0,0,0,100.429,82.555Z" transform="translate(-81.304 -44.765)" fill="#03309b"/>
</svg>
