<svg id="Group_13364" data-name="Group 13364" xmlns="http://www.w3.org/2000/svg" width="1320" height="353.255" viewBox="0 0 1320 353.255">
  <path id="Path_1" data-name="Path 1" d="M98.173,401.014a10.439,10.439,0,0,1-8.58-3.921,10.992,10.992,0,0,1-2.223-9.328L155.11,70.829a15.641,15.641,0,0,1,5.638-9.312,15.348,15.348,0,0,1,10.067-3.937H309.71a219,219,0,0,1,58.163,7.368Q394.617,72.3,413.517,87.28A81,81,0,0,1,440.27,124.8q7.844,22.568,1.471,52.978-12.772,60.844-52.525,88.558-39.761,27.738-109.936,27.722H235.106l-20.118,93.7a15.656,15.656,0,0,1-5.654,9.328,15.32,15.32,0,0,1-10.051,3.921ZM251.792,203.3H286.16c5.213,0,10.7-2.042,16.424-6.126q8.6-6.126,12.028-20.355a37.847,37.847,0,0,0,.752-12.775,19.257,19.257,0,0,0-4.674-10.782c-2.615-2.941-6.864-4.427-12.763-4.427H263.575Z" transform="translate(-87.146 -52.678)" fill="#f9fafc"/>
  <path id="Path_2" data-name="Path 2" d="M111.891,401.014a8.285,8.285,0,0,1-7.861-4.656,9.253,9.253,0,0,1,.49-9.573l175.714-313a39.074,39.074,0,0,1,9.332-10.8q6.373-5.391,16.2-5.407H414.717c6.537,0,11.211,1.813,13.989,5.407a20.771,20.771,0,0,1,4.657,10.8l43.193,313q.98,6.4-3.432,10.308a14.456,14.456,0,0,1-9.822,3.921H374.956q-9.315,0-12.747-4.166a16.017,16.017,0,0,1-3.939-8.086l-4.9-32.394H247.844L229.2,388.762a38.864,38.864,0,0,1-7.126,8.086q-4.657,4.166-14.479,4.166ZM293,260.7h55.466l-8.351-91.253Z" transform="translate(154.652 -52.678)" fill="#f9fafc"/>
  <g id="Group_1" data-name="Group 1" transform="translate(606.566)">
    <path id="Path_3" data-name="Path 3" d="M564.553,60.783a8.87,8.87,0,0,0-7.109-3.2H448.979a24.2,24.2,0,0,0-13.254,3.447,31,31,0,0,0-8.351,7.351L344.926,173.861h-7.861l22.1-103.032a11.018,11.018,0,0,0-2.206-9.312,10.549,10.549,0,0,0-8.6-3.937H157.429a15.34,15.34,0,0,0-10.051,3.937,15.589,15.589,0,0,0-5.654,9.312l-17.176,79a10.964,10.964,0,0,0,2.206,9.312,10.459,10.459,0,0,0,8.6,3.937h81.386L168.721,387.766q-.98,5.905,2.206,9.573a10.789,10.789,0,0,0,8.6,3.676h96.192a15.393,15.393,0,0,0,10.067-3.921,15.633,15.633,0,0,0,5.638-9.328L314.006,281.81h16.686l37.294,107.916a46.92,46.92,0,0,0,4.674,6.633q3.677,4.656,13.5,4.656H493.152a12.922,12.922,0,0,0,8.335-3.185,11.2,11.2,0,0,0,4.413-7.613,7.644,7.644,0,0,0,0-5.391L443.57,221.938,563.327,73.786a12.165,12.165,0,0,0,2.942-5.407A8.34,8.34,0,0,0,564.553,60.783Z" transform="translate(-124.317 -52.678)" fill="#f9fafc"/>
    <path id="Path_4" data-name="Path 4" d="M459.9,92.126q-20.886-17.178-49.583-26.007a206.356,206.356,0,0,0-61.1-8.838q-79.5,0-122.944,35.09-39,31.488-55.989,86.631h39.14c7.485,0,15.019,3.708,13.532,13.526l-16,74.951c-.964,6.943-6.063,13.526-13.531,13.526h-45.35q-4.511,31.023,4.576,54.71a96.767,96.767,0,0,0,30.43,41.445q20.861,16.688,49.567,25.027a218.4,218.4,0,0,0,61.121,8.348q79.5,0,122.7-33.375,43.168-33.35,59.862-99.1,4.927-20.118,9.822-42.687t8.351-43.667q5.393-32.37-4.167-57.406A100.355,100.355,0,0,0,459.9,92.126ZM366.878,192.692q-3.432,20.118-7.845,40.726t-9.822,41.706q-4.9,20.608-16.686,30.157-11.791,9.581-27.978,9.573t-23.795-9.573q-7.624-9.557-4.184-30.157,3.922-21.1,8.351-41.706,4.412-20.608,9.332-40.726,5.393-20.608,17.176-30.173a42.29,42.29,0,0,1,27.488-9.573q15.689,0,23.795,9.573Q370.824,172.076,366.878,192.692Z" transform="translate(216.993 -57.281)" fill="#f9fafc"/>
  </g>
</svg>
