<svg id="XMLID_806_" xmlns="http://www.w3.org/2000/svg" width="88" height="57.082" viewBox="0 0 88 57.082">
  <rect id="Rectangle_23" data-name="Rectangle 23" width="88" height="57" transform="translate(0 0.082)" fill="none"/>
  <g id="Page-1" transform="translate(23)">
    <g id="_001---Phone-Call" data-name="001---Phone-Call" transform="translate(0)">
      <path id="Shape" d="M3.805,28.065V53.277a3.805,3.805,0,0,0,3.805,3.805H34.249a3.805,3.805,0,0,0,3.805-3.805V45.83l2.964-2.963a2.88,2.88,0,0,0,0-4.067l-2.964-2.964V3.805A3.805,3.805,0,0,0,34.249,0H7.611A3.805,3.805,0,0,0,3.805,3.805V9.349L2.612,10.543a2.871,2.871,0,0,0-.741,1.276L.1,18.306a2.88,2.88,0,0,0,.015,1.571,37.228,37.228,0,0,0,3.688,8.188Zm7.29,9.361A43.192,43.192,0,0,0,28.642,48.406a2.889,2.889,0,0,0,1.571.016L36.152,46.8V48.52a1.9,1.9,0,0,1-1.9,1.9H7.611a1.9,1.9,0,0,1-1.9-1.9V31.006A47.93,47.93,0,0,0,11.1,37.424ZM34.249,55.179H7.611a1.9,1.9,0,0,1-1.9-1.9V51.8a3.766,3.766,0,0,0,1.9.529H34.249a3.766,3.766,0,0,0,1.9-.529v1.48A1.9,1.9,0,0,1,34.249,55.179Zm-6-53.277-1.22,1.3a1.91,1.91,0,0,1-1.389.6H16.221a1.9,1.9,0,0,1-1.388-.6l-1.22-1.3ZM7.611,1.9H11l2.44,2.6a3.816,3.816,0,0,0,2.776,1.2h9.419a3.824,3.824,0,0,0,2.777-1.2l2.439-2.6h3.394a1.9,1.9,0,0,1,1.9,1.9v15.84a21.582,21.582,0,0,0-3.566-4.662c-4.711-4.709-9.42-5.432-9.618-5.461a.951.951,0,1,0-.27,1.884,16.911,16.911,0,0,1,8.543,4.92,17.315,17.315,0,0,1,4.911,8.486v9.121L34.214,32a2.944,2.944,0,0,0-4.067,0l-1.355,1.357-.007,0v.006l-3.71,3.716A18.545,18.545,0,0,1,16.528,32a18.464,18.464,0,0,1-5.077-8.546l3.715-3.716,1.36-1.36a2.877,2.877,0,0,0,0-4.067L9.719,7.5a2.876,2.876,0,0,0-4.011-.046V3.805a1.9,1.9,0,0,1,1.9-1.9Zm-5.674,16.9,1.77-6.488a.973.973,0,0,1,.25-.431l1.007-1.007,4.77,4.77a.951.951,0,0,0,1.345-1.345l-4.77-4.77L7,8.847a.975.975,0,0,1,1.377,0l6.8,6.8a.975.975,0,0,1,0,1.377l-.689.688-.688-.688a.951.951,0,0,0-1.345,1.345l.688.688L10.1,22.105a1.915,1.915,0,0,0-.512,1.785,20.485,20.485,0,0,0,5.589,9.453,20.485,20.485,0,0,0,9.453,5.589,1.913,1.913,0,0,0,1.784-.512l3.044-3.044.688.688a.951.951,0,0,0,1.344-1.345L30.8,34.03l.688-.689a1,1,0,0,1,1.377,0l6.805,6.806a.975.975,0,0,1,0,1.377l-.689.688-4.77-4.77a.951.951,0,0,0-1.345,1.345l4.77,4.77-1.01,1.006a.971.971,0,0,1-.432.25l-6.488,1.77a1,1,0,0,1-.536-.007,41.2,41.2,0,0,1-16.735-10.5A41.194,41.194,0,0,1,1.944,19.343a.976.976,0,0,1-.007-.536Z" transform="translate(0)" fill="#03309b"/>
      <path id="Shape-2" data-name="Shape" d="M21.813,17.892a12.322,12.322,0,0,1,6.126,3.537,12.319,12.319,0,0,1,3.536,6.122.951.951,0,0,0,1.884-.27,13.941,13.941,0,0,0-4.075-7.2,13.941,13.941,0,0,0-7.2-4.075.951.951,0,0,0-.274,1.883Z" transform="translate(-1.022 -0.778)" fill="#03309b"/>
      <path id="Shape-3" data-name="Shape" d="M20.809,23.892a6.324,6.324,0,0,1,3.1,1.808,6.332,6.332,0,0,1,1.808,3.095.951.951,0,1,0,1.884-.27,8.067,8.067,0,0,0-2.345-4.17,8.067,8.067,0,0,0-4.17-2.345.952.952,0,0,0-.277,1.883Z" transform="translate(-0.973 -1.07)" fill="#03309b"/>
    </g>
  </g>
</svg>
