<svg xmlns="http://www.w3.org/2000/svg" width="10" height="13" viewBox="0 0 10 13">
  <g id="pdf-file" transform="translate(-44.806)">
    <path id="Path_4643" data-name="Path 4643" d="M119.157,297.752c0-.213-.148-.34-.408-.34a.906.906,0,0,0-.216.021v.683a.817.817,0,0,0,.175.013C118.986,298.129,119.157,297.988,119.157,297.752Z" transform="translate(-71.854 -289.386)" fill="#03309b"/>
    <path id="Path_4644" data-name="Path 4644" d="M194.041,297.681a1.08,1.08,0,0,0-.237.021v1.512a.949.949,0,0,0,.182.01.716.716,0,0,0,.782-.809A.663.663,0,0,0,194.041,297.681Z" transform="translate(-145.219 -289.639)" fill="#03309b"/>
    <path id="Path_4645" data-name="Path 4645" d="M51.7,0H46.768A1.349,1.349,0,0,0,45.46,1.384V6.5h-.128a.543.543,0,0,0-.527.558v3.381a.543.543,0,0,0,.527.558h.128v.62A1.349,1.349,0,0,0,46.768,13H53.5a1.349,1.349,0,0,0,1.307-1.384V3.275ZM46.188,7.668a3.906,3.906,0,0,1,.677-.048,1.019,1.019,0,0,1,.677.188.7.7,0,0,1,.237.543.773.773,0,0,1-.2.557.992.992,0,0,1-.72.247,1.227,1.227,0,0,1-.171-.01v.838h-.5ZM53.5,12.153H46.768a.523.523,0,0,1-.506-.536V11h6.275a.543.543,0,0,0,.527-.558V7.058a.543.543,0,0,0-.527-.558H46.261V1.384a.522.522,0,0,1,.506-.535L51.4.843V2.656a.934.934,0,0,0,.907.96l1.678-.005L54,11.616A.522.522,0,0,1,53.5,12.153ZM48.1,9.971v-2.3a4.268,4.268,0,0,1,.677-.048,1.369,1.369,0,0,1,.907.25,1.062,1.062,0,0,1,.375.884,1.222,1.222,0,0,1-.368.95,1.528,1.528,0,0,1-1.022.3A4.1,4.1,0,0,1,48.1,9.971Zm3.588-1.364v.431h-.8v.943h-.5V7.637h1.354v.435h-.851v.536Z" transform="translate(0)" fill="#03309b"/>
  </g>
</svg>
