<svg id="shipped" xmlns="http://www.w3.org/2000/svg" width="88" height="55" viewBox="0 0 88 55">
  <g id="Group_11" data-name="Group 11">
    <g id="Group_10" data-name="Group 10">
      <path id="Path_16" data-name="Path 16" d="M81.84,117.378l-2.279-9.006a1.366,1.366,0,0,0,1.091-1.331v-1.452a5.759,5.759,0,0,0-5.787-5.718H64.485v-3a2.834,2.834,0,0,0-2.848-2.814H8.726a2.834,2.834,0,0,0-2.848,2.814v24.687a1.378,1.378,0,0,0,2.756,0V96.876a.091.091,0,0,1,.092-.091h52.91a.091.091,0,0,1,.092.091v24.687a1.378,1.378,0,0,0,2.756,0v-1.543H80.746a4.5,4.5,0,0,1,4.282,3.086H80.743a1.37,1.37,0,0,0-1.378,1.361v2.9a4.3,4.3,0,0,0,4.317,4.266h1.562v5.99h-3.6a8.759,8.759,0,0,0-16.494,0h-.663V127.371a1.378,1.378,0,0,0-2.756,0v10.256H33.14a8.759,8.759,0,0,0-16.494,0H8.726a.091.091,0,0,1-.092-.091v-3h5.971a1.362,1.362,0,1,0,0-2.723H1.378a1.362,1.362,0,1,0,0,2.723h4.5v3a2.834,2.834,0,0,0,2.848,2.814H16.17c0,.03,0,.06,0,.091a8.727,8.727,0,0,0,17.453,0c0-.031,0-.06,0-.091H64.67c0,.03,0,.06,0,.091a8.727,8.727,0,0,0,17.453,0c0-.031,0-.06,0-.091h4.5A1.37,1.37,0,0,0,88,138.988V124.466A7.208,7.208,0,0,0,81.84,117.378ZM64.485,102.594h10.38a3.017,3.017,0,0,1,3.031,3v.091H64.485Zm0,14.7V108.4H76.728l2.251,8.894H64.485ZM24.894,146.34a5.9,5.9,0,1,1,5.971-5.9A5.942,5.942,0,0,1,24.894,146.34Zm48.5,0a5.9,5.9,0,1,1,5.971-5.9A5.942,5.942,0,0,1,73.395,146.34Zm11.85-17.426H83.683a1.554,1.554,0,0,1-1.562-1.543v-1.543h3.123v3.086Z" transform="translate(0 -94.062)" fill="#03309b"/>
    </g>
  </g>
  <g id="Group_13" data-name="Group 13" transform="translate(22.046 43.426)">
    <g id="Group_12" data-name="Group 12" transform="translate(0 0)">
      <path id="Path_17" data-name="Path 17" d="M131.115,350.6a2.848,2.848,0,1,0,2.848,2.848A2.851,2.851,0,0,0,131.115,350.6Z" transform="translate(-128.267 -350.597)" fill="#03309b"/>
    </g>
  </g>
  <g id="Group_15" data-name="Group 15" transform="translate(70.547 43.426)">
    <g id="Group_14" data-name="Group 14" transform="translate(0 0)">
      <path id="Path_18" data-name="Path 18" d="M413.3,350.6a2.848,2.848,0,1,0,2.848,2.848A2.851,2.851,0,0,0,413.3,350.6Z" transform="translate(-410.455 -350.597)" fill="#03309b"/>
    </g>
  </g>
  <g id="Group_17" data-name="Group 17" transform="translate(35.273 37.732)">
    <g id="Group_16" data-name="Group 16" transform="translate(0 0)">
      <path id="Path_19" data-name="Path 19" d="M227.181,316.393H206.6a1.378,1.378,0,1,0,0,2.756h20.576a1.378,1.378,0,0,0,0-2.756Z" transform="translate(-205.227 -316.393)" fill="#03309b"/>
    </g>
  </g>
  <g id="Group_19" data-name="Group 19" transform="translate(2.939 31.927)">
    <g id="Group_18" data-name="Group 18">
      <path id="Path_20" data-name="Path 20" d="M36.117,282.188H18.48a1.378,1.378,0,1,0,0,2.756H36.117a1.378,1.378,0,1,0,0-2.756Z" transform="translate(-17.102 -282.188)" fill="#03309b"/>
    </g>
  </g>
  <g id="Group_21" data-name="Group 21" transform="translate(24.985 13.006)">
    <g id="Group_20" data-name="Group 20" transform="translate(0 0)">
      <path id="Path_21" data-name="Path 21" d="M168.3,171.426a1.378,1.378,0,0,0-1.949,0L154.1,183.679l-6.374-6.374a1.378,1.378,0,0,0-1.949,1.949l7.349,7.349a1.378,1.378,0,0,0,1.948,0L168.3,173.375A1.378,1.378,0,0,0,168.3,171.426Z" transform="translate(-145.37 -171.023)" fill="#03309b"/>
    </g>
  </g>
</svg>
